<?xml version="1.0" encoding="utf-8"?>
<!-- Generator: Adobe Illustrator 21.1.0, SVG Export Plug-In . SVG Version: 6.00 Build 0)  -->
<svg version="1.1" id="Layer_1" xmlns="http://www.w3.org/2000/svg" xmlns:xlink="http://www.w3.org/1999/xlink" x="0px" y="0px"
	 viewBox="0 0 230 222" style="enable-background:new 0 0 230 222;" xml:space="preserve">
<style type="text/css">
	.st0{fill:#FFFFFF;}
</style>
<g>
	<g>
		<g>
			<path class="st0" d="M193.7,44.1l-7.2-36.7c-0.8-4.1-6.4-4.7-8.1-0.9l-59.6,136.6c-1.5,3.4-6.3,3.4-7.8,0L51.5,6.6
				c-1.7-3.8-7.3-3.2-8.1,0.9l-7.2,36.8c-0.2,0.9-0.1,1.7,0.3,2.5l74.5,168.7c1.5,3.4,6.3,3.4,7.8,0l38.9-88.5l0,0l35.6-80.3
				C193.8,45.9,193.9,45,193.7,44.1z"/>
			<path class="st0" d="M9.6,201.1h53c3,0,5.1-3.1,3.9-5.9L31,110.3c-1.6-3.9-7.2-3.3-8.1,0.8L5.4,196
				C4.9,198.6,6.9,201.1,9.6,201.1z"/>
			<path class="st0" d="M220.4,201.1h-53c-3,0-5.1-3.1-3.9-5.9l35.4-84.9c1.6-3.9,7.2-3.3,8.1,0.8l17.5,84.9
				C225.1,198.6,223.1,201.1,220.4,201.1z"/>
		</g>
	</g>
</g>
</svg>
